<?xml version="1.0" encoding="utf-8"?>
<!-- Generator: Adobe Illustrator 19.0.0, SVG Export Plug-In . SVG Version: 6.00 Build 0)  -->
<svg version="1.1" id="Layer_1" xmlns="http://www.w3.org/2000/svg" xmlns:xlink="http://www.w3.org/1999/xlink" x="0px" y="0px"
	 viewBox="0 0 8.8 16.9" style="enable-background:new 0 0 8.8 16.9;" xml:space="preserve">
<style type="text/css">
	.st0{fill:#24AE5F;}
	.st1{fill:#4FBA6F;}
</style>
<circle id="XMLID_1_" class="st0" cx="1.6" cy="15.3" r="1.6"/>
<g id="XMLID_3_">
	<path id="XMLID_4_" class="st1" d="M2.4,7.4v4H0V0h4.5c0.9,0,1.6,0.2,2.3,0.5s1.2,0.8,1.5,1.3c0.4,0.6,0.5,1.2,0.5,2
		c0,1.1-0.4,2-1.2,2.7s-1.8,1-3.2,1H2.4z M2.4,5.5h2.1c0.6,0,1.1-0.1,1.4-0.4c0.3-0.3,0.5-0.7,0.5-1.3c0-0.6-0.2-1-0.5-1.4
		S5.1,1.9,4.5,1.9H2.4V5.5z"/>
</g>
</svg>
